<svg width="268" height="187" viewBox="0 0 268 187" fill="none" xmlns="http://www.w3.org/2000/svg">
<rect x="2.5" y="100.5" width="92" height="86" stroke="black"/>
<rect x="2.5" y="0.5" width="92" height="86" stroke="black"/>
<circle cx="94.5" cy="43.5" r="2.5" fill="black"/>
<circle cx="2.5" cy="27.5" r="2.5" fill="black"/>
<circle cx="94.5" cy="142.5" r="2.5" fill="black"/>
<circle cx="257.5" cy="72.5" r="2.5" fill="black"/>
<path d="M102.284 38.1534C101.869 38.1534 101.506 38.0753 101.193 37.919C100.881 37.7599 100.649 37.5312 100.499 37.233C100.348 36.9318 100.307 36.5682 100.375 36.142C100.44 35.767 100.567 35.4631 100.754 35.2301C100.942 34.9943 101.169 34.8097 101.436 34.6761C101.706 34.5398 101.996 34.4389 102.305 34.3736C102.618 34.3054 102.929 34.2528 103.239 34.2159C103.642 34.1648 103.97 34.125 104.223 34.0966C104.476 34.0682 104.666 34.0213 104.794 33.956C104.922 33.8906 105 33.7784 105.028 33.6193V33.5852C105.097 33.1676 105.041 32.8423 104.862 32.6094C104.683 32.3736 104.364 32.2557 103.903 32.2557C103.426 32.2557 103.027 32.3608 102.706 32.571C102.385 32.7812 102.148 33.0057 101.994 33.2443L101.108 32.9034C101.341 32.5057 101.619 32.196 101.943 31.9744C102.267 31.75 102.607 31.5937 102.962 31.5057C103.317 31.4148 103.659 31.3693 103.989 31.3693C104.199 31.3693 104.436 31.3949 104.7 31.446C104.964 31.4943 105.212 31.5952 105.442 31.7486C105.675 31.902 105.849 32.1335 105.966 32.4432C106.085 32.7528 106.102 33.1676 106.017 33.6875L105.301 38H104.295L104.449 37.1136H104.398C104.307 37.2557 104.168 37.4077 103.98 37.5696C103.795 37.7315 103.561 37.8693 103.277 37.983C102.996 38.0966 102.665 38.1534 102.284 38.1534ZM102.574 37.25C102.972 37.25 103.32 37.1719 103.618 37.0156C103.919 36.8594 104.161 36.6577 104.342 36.4105C104.527 36.1634 104.642 35.9034 104.688 35.6307L104.841 34.7102C104.79 34.7614 104.689 34.8082 104.538 34.8509C104.388 34.8906 104.217 34.9261 104.027 34.9574C103.839 34.9858 103.656 35.0114 103.477 35.0341C103.301 35.054 103.159 35.071 103.051 35.0852C102.784 35.1193 102.53 35.1747 102.288 35.2514C102.05 35.3253 101.848 35.4375 101.683 35.5881C101.521 35.7358 101.42 35.9375 101.381 36.1932C101.321 36.5426 101.405 36.8068 101.632 36.9858C101.859 37.1619 102.173 37.25 102.574 37.25ZM110.358 29.2727L110.239 29.9716H107.819L107.938 29.2727H110.358ZM107.836 33.6364L108.62 28.8636C108.688 28.4375 108.868 28.1151 109.161 27.8963C109.453 27.6776 109.779 27.5682 110.137 27.5682C110.299 27.5682 110.438 27.581 110.554 27.6065C110.674 27.6321 110.767 27.6534 110.836 27.6705L110.546 28.3693C110.478 28.3523 110.415 28.3395 110.358 28.331C110.304 28.3224 110.248 28.3182 110.188 28.3182C110 28.3182 109.851 28.3679 109.74 28.4673C109.63 28.5639 109.557 28.7017 109.523 28.8807L108.739 33.6364H107.836Z" fill="black"/>
<path d="M46.3295 45.2102L46.483 44.2727H53.0284L52.875 45.2102H50.1307L48.8352 53H47.7784L49.0739 45.2102H46.3295ZM56.2958 44.2727L56.1765 44.9716H53.756L53.8754 44.2727H56.2958ZM53.7731 48.6364L54.5572 43.8636C54.6254 43.4375 54.8058 43.1151 55.0984 42.8963C55.391 42.6776 55.7163 42.5682 56.0742 42.5682C56.2362 42.5682 56.3754 42.581 56.4918 42.6065C56.6112 42.6321 56.7049 42.6534 56.7731 42.6705L56.4833 43.3693C56.4151 43.3523 56.3526 43.3395 56.2958 43.331C56.2418 43.3224 56.185 43.3182 56.1254 43.3182C55.9379 43.3182 55.7887 43.3679 55.6779 43.4673C55.5671 43.5639 55.4947 43.7017 55.4606 43.8807L54.6765 48.6364H53.7731Z" fill="black"/>
<path d="M46.3295 131.21L46.483 130.273H53.0284L52.875 131.21H50.1307L48.8352 139H47.7784L49.0739 131.21H46.3295ZM56.2958 130.273L56.1765 130.972H53.756L53.8754 130.273H56.2958ZM53.7731 134.636L54.5572 129.864C54.6254 129.437 54.8058 129.115 55.0984 128.896C55.391 128.678 55.7163 128.568 56.0742 128.568C56.2362 128.568 56.3754 128.581 56.4918 128.607C56.6112 128.632 56.7049 128.653 56.7731 128.67L56.4833 129.369C56.4151 129.352 56.3526 129.339 56.2958 129.331C56.2418 129.322 56.185 129.318 56.1254 129.318C55.9379 129.318 55.7887 129.368 55.6779 129.467C55.5671 129.564 55.4947 129.702 55.4606 129.881L54.6765 134.636H53.7731ZM60.8352 132.062L60.6989 132.83H56.9318L57.0511 132.062H60.8352ZM63.0298 134.636L63.7457 130.332H63.7031L62.2031 131.227L62.3565 130.324L63.8991 129.403H64.7855L63.9162 134.636H63.0298Z" fill="black"/>
<path d="M4.96591 22.4545L6.47443 13.4545H7.44602L7.27557 14.4943H7.39489C7.4858 14.3807 7.6108 14.2358 7.76989 14.0597C7.93182 13.8807 8.14915 13.7216 8.42188 13.5824C8.69744 13.4403 9.0483 13.3693 9.47443 13.3693C10.0256 13.3693 10.4872 13.5071 10.8594 13.7827C11.2315 14.0582 11.4943 14.4489 11.6477 14.9545C11.8011 15.4602 11.821 16.0568 11.7074 16.7443C11.5938 17.4375 11.3764 18.0384 11.0554 18.5469C10.7344 19.0526 10.3423 19.4446 9.87926 19.723C9.41619 19.9986 8.91193 20.1364 8.36648 20.1364C7.94602 20.1364 7.62074 20.0668 7.39062 19.9276C7.16051 19.7855 6.9929 19.625 6.88778 19.446C6.78267 19.2642 6.7017 19.1136 6.64489 18.9943H6.55966L5.98011 22.4545H4.96591ZM6.91761 16.7273C6.83807 17.2216 6.83807 17.6577 6.91761 18.0355C7 18.4105 7.16335 18.7045 7.40767 18.9176C7.65483 19.1278 7.98011 19.233 8.38352 19.233C8.80398 19.233 9.17188 19.1222 9.48722 18.9006C9.8054 18.6761 10.0668 18.375 10.2713 17.9972C10.4787 17.6165 10.6222 17.1932 10.7017 16.7273C10.7756 16.267 10.7727 15.8523 10.6932 15.483C10.6136 15.1108 10.4517 14.8168 10.2074 14.6009C9.96307 14.3821 9.62784 14.2727 9.2017 14.2727C8.79261 14.2727 8.4304 14.3764 8.11506 14.5838C7.80256 14.7884 7.54403 15.0753 7.33949 15.4446C7.13778 15.8111 6.99716 16.2386 6.91761 16.7273ZM12.1026 21.5L12.8356 17.1364H13.739L13.006 21.5H12.1026ZM13.4322 16.5398C13.2617 16.5398 13.1339 16.483 13.0487 16.3693C12.9663 16.2528 12.9293 16.1392 12.9379 16.0284C12.9464 15.9091 13.0032 15.794 13.1083 15.6832C13.2134 15.5724 13.3384 15.517 13.4833 15.517C13.6197 15.517 13.7404 15.5611 13.8455 15.6491C13.9506 15.7344 13.9947 15.8665 13.9776 16.0455C13.9606 16.2074 13.8952 16.331 13.7816 16.4162C13.668 16.4986 13.5515 16.5398 13.4322 16.5398ZM17.9716 11.2727L17.8523 11.9716H15.4318L15.5511 11.2727H17.9716ZM15.4489 15.6364L16.233 10.8636C16.3011 10.4375 16.4815 10.1151 16.7741 9.89631C17.0668 9.67756 17.392 9.56818 17.75 9.56818C17.9119 9.56818 18.0511 9.58097 18.1676 9.60653C18.2869 9.6321 18.3807 9.65341 18.4489 9.67045L18.1591 10.3693C18.0909 10.3523 18.0284 10.3395 17.9716 10.331C17.9176 10.3224 17.8608 10.3182 17.8011 10.3182C17.6136 10.3182 17.4645 10.3679 17.3537 10.4673C17.2429 10.5639 17.1705 10.7017 17.1364 10.8807L16.3523 15.6364H15.4489Z" fill="black"/>
<circle cx="2.5" cy="181.5" r="2.5" fill="black"/>
<path d="M4.96591 176.455L6.47443 167.455H7.44602L7.27557 168.494H7.39489C7.4858 168.381 7.6108 168.236 7.76989 168.06C7.93182 167.881 8.14915 167.722 8.42188 167.582C8.69744 167.44 9.0483 167.369 9.47443 167.369C10.0256 167.369 10.4872 167.507 10.8594 167.783C11.2315 168.058 11.4943 168.449 11.6477 168.955C11.8011 169.46 11.821 170.057 11.7074 170.744C11.5938 171.438 11.3764 172.038 11.0554 172.547C10.7344 173.053 10.3423 173.445 9.87926 173.723C9.41619 173.999 8.91193 174.136 8.36648 174.136C7.94602 174.136 7.62074 174.067 7.39062 173.928C7.16051 173.786 6.9929 173.625 6.88778 173.446C6.78267 173.264 6.7017 173.114 6.64489 172.994H6.55966L5.98011 176.455H4.96591ZM6.91761 170.727C6.83807 171.222 6.83807 171.658 6.91761 172.036C7 172.411 7.16335 172.705 7.40767 172.918C7.65483 173.128 7.98011 173.233 8.38352 173.233C8.80398 173.233 9.17188 173.122 9.48722 172.901C9.8054 172.676 10.0668 172.375 10.2713 171.997C10.4787 171.616 10.6222 171.193 10.7017 170.727C10.7756 170.267 10.7727 169.852 10.6932 169.483C10.6136 169.111 10.4517 168.817 10.2074 168.601C9.96307 168.382 9.62784 168.273 9.2017 168.273C8.79261 168.273 8.4304 168.376 8.11506 168.584C7.80256 168.788 7.54403 169.075 7.33949 169.445C7.13778 169.811 6.99716 170.239 6.91761 170.727ZM12.1026 175.5L12.8356 171.136H13.739L13.006 175.5H12.1026ZM13.4322 170.54C13.2617 170.54 13.1339 170.483 13.0487 170.369C12.9663 170.253 12.9293 170.139 12.9379 170.028C12.9464 169.909 13.0032 169.794 13.1083 169.683C13.2134 169.572 13.3384 169.517 13.4833 169.517C13.6197 169.517 13.7404 169.561 13.8455 169.649C13.9506 169.734 13.9947 169.866 13.9776 170.045C13.9606 170.207 13.8952 170.331 13.7816 170.416C13.668 170.499 13.5515 170.54 13.4322 170.54ZM17.9716 165.273L17.8523 165.972H15.4318L15.5511 165.273H17.9716ZM15.4489 169.636L16.233 164.864C16.3011 164.437 16.4815 164.115 16.7741 163.896C17.0668 163.678 17.392 163.568 17.75 163.568C17.9119 163.568 18.0511 163.581 18.1676 163.607C18.2869 163.632 18.3807 163.653 18.4489 163.67L18.1591 164.369C18.0909 164.352 18.0284 164.339 17.9716 164.331C17.9176 164.322 17.8608 164.318 17.8011 164.318C17.6136 164.318 17.4645 164.368 17.3537 164.467C17.2429 164.564 17.1705 164.702 17.1364 164.881L16.3523 169.636H15.4489ZM22.511 167.062L22.3746 167.83H18.6076L18.7269 167.062H22.511ZM24.7056 169.636L25.4215 165.332H25.3789L23.8789 166.227L24.0323 165.324L25.5749 164.403H26.4613L25.592 169.636H24.7056Z" fill="black"/>
<path d="M102.284 152.153C101.869 152.153 101.506 152.075 101.193 151.919C100.881 151.76 100.649 151.531 100.499 151.233C100.348 150.932 100.307 150.568 100.375 150.142C100.44 149.767 100.567 149.463 100.754 149.23C100.942 148.994 101.169 148.81 101.436 148.676C101.706 148.54 101.996 148.439 102.305 148.374C102.618 148.305 102.929 148.253 103.239 148.216C103.642 148.165 103.97 148.125 104.223 148.097C104.476 148.068 104.666 148.021 104.794 147.956C104.922 147.891 105 147.778 105.028 147.619V147.585C105.097 147.168 105.041 146.842 104.862 146.609C104.683 146.374 104.364 146.256 103.903 146.256C103.426 146.256 103.027 146.361 102.706 146.571C102.385 146.781 102.148 147.006 101.994 147.244L101.108 146.903C101.341 146.506 101.619 146.196 101.943 145.974C102.267 145.75 102.607 145.594 102.962 145.506C103.317 145.415 103.659 145.369 103.989 145.369C104.199 145.369 104.436 145.395 104.7 145.446C104.964 145.494 105.212 145.595 105.442 145.749C105.675 145.902 105.849 146.134 105.966 146.443C106.085 146.753 106.102 147.168 106.017 147.688L105.301 152H104.295L104.449 151.114H104.398C104.307 151.256 104.168 151.408 103.98 151.57C103.795 151.732 103.561 151.869 103.277 151.983C102.996 152.097 102.665 152.153 102.284 152.153ZM102.574 151.25C102.972 151.25 103.32 151.172 103.618 151.016C103.919 150.859 104.161 150.658 104.342 150.411C104.527 150.163 104.642 149.903 104.688 149.631L104.841 148.71C104.79 148.761 104.689 148.808 104.538 148.851C104.388 148.891 104.217 148.926 104.027 148.957C103.839 148.986 103.656 149.011 103.477 149.034C103.301 149.054 103.159 149.071 103.051 149.085C102.784 149.119 102.53 149.175 102.288 149.251C102.05 149.325 101.848 149.437 101.683 149.588C101.521 149.736 101.42 149.937 101.381 150.193C101.321 150.543 101.405 150.807 101.632 150.986C101.859 151.162 102.173 151.25 102.574 151.25ZM110.358 143.273L110.239 143.972H107.819L107.938 143.273H110.358ZM107.836 147.636L108.62 142.864C108.688 142.437 108.868 142.115 109.161 141.896C109.453 141.678 109.779 141.568 110.137 141.568C110.299 141.568 110.438 141.581 110.554 141.607C110.674 141.632 110.767 141.653 110.836 141.67L110.546 142.369C110.478 142.352 110.415 142.339 110.358 142.331C110.304 142.322 110.248 142.318 110.188 142.318C110 142.318 109.851 142.368 109.74 142.467C109.63 142.564 109.557 142.702 109.523 142.881L108.739 147.636H107.836ZM114.898 145.062L114.761 145.83H110.994L111.114 145.062H114.898ZM117.092 147.636L117.808 143.332H117.766L116.266 144.227L116.419 143.324L117.962 142.403H118.848L117.979 147.636H117.092Z" fill="black"/>
<path d="M127.028 110.062L126.381 114H125.375L126.466 107.455H127.438L127.267 108.477H127.352C127.557 108.145 127.834 107.878 128.183 107.676C128.533 107.472 128.955 107.369 129.449 107.369C129.886 107.369 130.256 107.46 130.557 107.642C130.861 107.821 131.075 108.094 131.2 108.46C131.328 108.824 131.347 109.284 131.256 109.841L130.557 114H129.551L130.233 109.909C130.318 109.398 130.251 108.997 130.033 108.707C129.817 108.418 129.474 108.273 129.006 108.273C128.682 108.273 128.382 108.342 128.107 108.482C127.834 108.621 127.602 108.824 127.412 109.091C127.224 109.358 127.097 109.682 127.028 110.062Z" fill="black"/>
<path d="M259.966 69.4545L261.474 60.4545H262.446L262.276 61.4943H262.395C262.486 61.3807 262.611 61.2358 262.77 61.0597C262.932 60.8807 263.149 60.7216 263.422 60.5824C263.697 60.4403 264.048 60.3693 264.474 60.3693C265.026 60.3693 265.487 60.5071 265.859 60.7827C266.232 61.0582 266.494 61.4489 266.648 61.9545C266.801 62.4602 266.821 63.0568 266.707 63.7443C266.594 64.4375 266.376 65.0384 266.055 65.5469C265.734 66.0526 265.342 66.4446 264.879 66.723C264.416 66.9986 263.912 67.1364 263.366 67.1364C262.946 67.1364 262.621 67.0668 262.391 66.9276C262.161 66.7855 261.993 66.625 261.888 66.446C261.783 66.2642 261.702 66.1136 261.645 65.9943H261.56L260.98 69.4545H259.966ZM261.918 63.7273C261.838 64.2216 261.838 64.6577 261.918 65.0355C262 65.4105 262.163 65.7045 262.408 65.9176C262.655 66.1278 262.98 66.233 263.384 66.233C263.804 66.233 264.172 66.1222 264.487 65.9006C264.805 65.6761 265.067 65.375 265.271 64.9972C265.479 64.6165 265.622 64.1932 265.702 63.7273C265.776 63.267 265.773 62.8523 265.693 62.483C265.614 62.1108 265.452 61.8168 265.207 61.6009C264.963 61.3821 264.628 61.2727 264.202 61.2727C263.793 61.2727 263.43 61.3764 263.115 61.5838C262.803 61.7884 262.544 62.0753 262.339 62.4446C262.138 62.8111 261.997 63.2386 261.918 63.7273Z" fill="black"/>
<line x1="256.913" y1="72.4924" x2="1.91311" y2="27.4924" stroke="black" stroke-dasharray="2 2"/>
<line x1="257.198" y1="72.4591" x2="2.19804" y2="182.459" stroke="black" stroke-dasharray="2 2"/>
<path d="M117.158 110.526C116.896 110.438 116.613 110.58 116.526 110.842L115.103 115.111C115.015 115.373 115.157 115.656 115.419 115.743C115.681 115.831 115.964 115.689 116.051 115.427L117.316 111.632L121.111 112.897C121.373 112.985 121.656 112.843 121.743 112.581C121.831 112.319 121.689 112.036 121.427 111.949L117.158 110.526ZM125.447 126.776L117.447 110.776L116.553 111.224L124.553 127.224L125.447 126.776Z" fill="black"/>
</svg>
